<svg width="66" height="31" fill="none" xmlns="http://www.w3.org/2000/svg">
    <path d="M27.03 25.78a3.045 3.045 0 00-.313-1.149 3.289 3.289 0 00-1.32-1.426 3.112 3.112 0 00-1.6-.436c-.83 0-1.555.29-2.174.868a3.21 3.21 0 00-1.035 2.144h6.442zm-1.514 4.12h-1.728c-1.088 0-1.993-.398-2.713-1.192-.688-.75-1.03-1.625-1.03-2.625 0-.738.196-1.424.593-2.056.33-.525.756-.942 1.278-1.25a3.677 3.677 0 011.89-.51c.972 0 1.817.331 2.531.997.533.498.885.912 1.122 1.93.066.28.08 1.044.08 1.044h-6.971c.033.566.196 1.126.482 1.59.302.48.69.858 1.163 1.132.495.29 1.026.436 1.592.436h1.711v.503zM5.58 29.765h.52v-7.331h-.52v7.331zM11.683 22.77c-.93 0-1.721.357-2.376 1.072a3.112 3.112 0 00-.841 2.181c0 1.008.341 1.832 1.023 2.475.632.599 1.352.898 2.161.898.93 0 1.718-.35 2.367-1.049.588-.631.883-1.389.883-2.273 0-.99-.369-1.818-1.105-2.483a3.166 3.166 0 00-2.112-.822zm-3.225 1.375c.76-1.253 1.84-1.879 3.241-1.879 1.116 0 2.04.416 2.772 1.25.632.727.949 1.582.949 2.567 0 1.174-.43 2.138-1.287 2.894a3.57 3.57 0 01-2.45.922c-.93 0-1.746-.305-2.45-.915a3.551 3.551 0 01-1.204-2.088c-.061-.33-.09-.819-.09-1.468v-5.73h.519v4.447zM19.612 22.417v.502c-.747.023-1.275.223-1.58.6-.305.379-.457 1.02-.457 1.926v4.32h-.52v-4.37c-.06-1.997.792-2.989 2.557-2.978zM3.753 29.858v-.505c-.748-.022-1.274-.22-1.58-.6-.305-.377-.457-1.018-.457-1.923l-.004-7.131h-.519l.003 7.18c-.06 1.996.792 2.99 2.557 2.979z" fill="#F39100" fill-opacity=".5" stroke="#A2A1A1" stroke-opacity=".5"/>
    <path d="M60.415 25.881a3.044 3.044 0 00-.314-1.149 3.29 3.29 0 00-1.32-1.427 3.113 3.113 0 00-1.6-.435c-.83 0-1.554.29-2.173.867a3.21 3.21 0 00-1.035 2.145h6.442zM58.901 30h-1.728c-1.089 0-1.993-.397-2.714-1.19-.687-.75-1.03-1.626-1.03-2.626 0-.739.197-1.424.593-2.056a3.724 3.724 0 013.168-1.761c.973 0 1.817.332 2.532.998.533.498.884.912 1.121 1.93.066.28.08 1.044.08 1.044h-6.97c.033.565.195 1.125.482 1.589.302.481.69.858 1.162 1.133.496.29 1.026.436 1.593.436h1.71V30zM33.504 22.417v.502c-.748.023-1.275.223-1.58.6-.305.379-.458 1.02-.458 1.926v4.32h-.52v-4.37c-.06-1.997.793-2.989 2.558-2.978zM37.723 22.77c-.94 0-1.735.371-2.384 1.115a3.244 3.244 0 00-.816 2.198c0 .978.354 1.798 1.063 2.457.61.571 1.306.856 2.087.856.979 0 1.79-.372 2.433-1.115a3.214 3.214 0 00.817-2.173c0-.985-.354-1.813-1.064-2.483-.588-.555-1.3-.84-2.136-.856zm0-.504c1.094 0 2.015.411 2.763 1.233.649.716.973 1.588.973 2.618 0 1.145-.423 2.093-1.27 2.843-.709.626-1.55.94-2.524.94-.593 0-1.166-.151-1.715-.453a3.62 3.62 0 01-1.477-1.468 3.826 3.826 0 01-.486-1.896c0-1.164.426-2.123 1.277-2.878.683-.61 1.502-.923 2.46-.939zM43.005 22.434h.519v4.084c0 .488.02.85.062 1.091.042.241.124.481.252.721a2.04 2.04 0 001.83 1.1c.375 0 .718-.093 1.032-.277a2.07 2.07 0 00.75-.764 2.59 2.59 0 00.285-.772c.052-.267.078-.637.078-1.106v-4.077h.52v4.176c0 .89-.135 1.566-.404 2.03a2.49 2.49 0 01-.94.932c-.424.24-.87.36-1.336.36a2.549 2.549 0 01-1.65-.587 2.441 2.441 0 01-.78-1.086c-.146-.416-.218-1.013-.218-1.79v-4.035zM50.17 22.434v-2.576h.52v2.576h2.029v.503h-2.03v3.809c0 .9.153 1.539.458 1.916.305.378.83.577 1.572.6v.504c-1.76.01-2.61-.983-2.55-2.979v-4.353zM65.003 22.417v.502c-.748.023-1.275.223-1.58.6-.305.379-.458 1.02-.458 1.926v4.32h-.52v-4.37c-.06-1.997.792-2.989 2.558-2.978z" fill="#F39100" fill-opacity=".5" stroke="#F39100" stroke-opacity=".5"/>
    <path d="M32.351 4.21s1.78-2.527 4.41-1.384c0 0 2.188.731 2.553 3.278 0 0 .495 2.44-1.432 4.594 0 0-3.014 3.27-5.53 4.92 0 0-3.612-2.527-5.54-4.92 0 0-1.783-1.889-1.445-4.594 0 0 .261-1.881 1.628-2.76 0 0 2.77-2.18 5.356.865z" fill="#F39100" fill-opacity=".5"/>
    <path d="M23.926 2.88l-.04.106c-.026.067-.06.17-.104.294-.088.251-.204.606-.324 1.024-.057.21-.12.433-.173.672-.03.118-.053.24-.08.364-.02.126-.054.25-.07.38-.048.255-.076.522-.108.79-.02.269-.041.541-.042.814l-.003.205.005.204c0 .136.01.272.017.407.002.067.008.134.017.2l.016.2c.01.134.037.263.048.393.038.258.077.51.127.75.012.06.02.12.034.178.013.058.028.115.04.172.025.113.045.226.074.33.055.211.097.412.149.586.048.175.083.334.122.462.037.128.06.234.079.304l.025.111s-.03-.024-.085-.072c-.053-.05-.135-.119-.232-.215-.102-.092-.207-.218-.33-.363-.127-.143-.247-.32-.38-.516-.069-.096-.124-.206-.19-.316a5.908 5.908 0 01-.703-2.07c-.019-.16-.046-.32-.05-.482l-.013-.244v-.244c.002-.327.04-.652.094-.968.03-.157.058-.313.102-.463l.06-.225c.024-.073.05-.145.073-.217.047-.143.104-.28.16-.414.062-.131.114-.262.181-.382.125-.244.265-.461.4-.656.275-.385.55-.666.759-.843.102-.09.192-.152.25-.195.06-.042.095-.06.095-.06zM20.39 1.847l-.062.133c-.041.085-.095.214-.164.375a18.559 18.559 0 00-.504 1.333c-.09.277-.186.574-.268.892-.045.158-.082.322-.124.488-.031.169-.08.336-.108.511-.072.346-.117.707-.164 1.072-.032.366-.067.737-.065 1.11l-.005.28.009.278c.002.185.018.37.029.553l.01.138.016.136.027.271c.007.09.023.18.037.268.015.088.026.177.038.264.06.348.123.688.201 1.007.018.08.034.16.053.238.022.077.044.153.063.229.041.15.073.3.118.438.087.278.155.542.236.768.077.228.136.435.198.598.06.165.1.3.13.391l.043.142s-.037-.035-.103-.103c-.064-.069-.164-.168-.283-.3-.125-.13-.254-.302-.405-.5-.157-.196-.303-.437-.468-.699-.044-.064-.08-.134-.118-.206l-.116-.218c-.04-.073-.078-.15-.117-.227-.038-.078-.072-.16-.108-.242a8.343 8.343 0 01-.64-2.259c-.024-.207-.058-.416-.062-.628L17.7 8.06c-.002-.107 0-.213 0-.32a8.72 8.72 0 01.115-1.262c.04-.205.073-.41.128-.607l.075-.294c.029-.097.06-.191.09-.286.058-.189.13-.369.197-.546l.11-.257a8.051 8.051 0 01.609-1.124c.342-.52.682-.905.94-1.153.126-.126.237-.215.31-.276.073-.06.116-.088.116-.088zM16.963 0l-.094.174c-.062.113-.145.283-.252.495-.107.212-.224.477-.357.777-.132.3-.271.643-.413 1.017-.066.19-.143.382-.208.587l-.104.31-.097.322c-.069.217-.124.443-.189.671-.05.233-.12.464-.164.707-.109.48-.179.982-.248 1.49-.05.51-.1 1.028-.098 1.548l-.006.39.013.39c.003.258.028.516.045.772l.015.191.025.19.043.377c.011.126.036.25.057.372.022.122.04.245.06.367.09.482.189.95.309 1.39.028.11.053.22.083.326l.096.314c.064.205.114.409.183.597.134.378.241.735.367 1.039.119.307.212.584.309.802.092.22.158.398.207.518l.07.187-.13-.148c-.083-.098-.208-.24-.36-.428-.16-.184-.323-.426-.517-.704-.2-.273-.386-.607-.599-.97-.055-.089-.102-.185-.15-.283l-.148-.3c-.05-.101-.1-.206-.15-.311-.049-.107-.091-.219-.138-.33a11.855 11.855 0 01-.82-3.062c-.03-.28-.073-.562-.078-.848l-.02-.428a12.251 12.251 0 01.15-2.132c.053-.276.094-.553.165-.819l.097-.398a5792.428 5792.428 0 00.173-.577l.065-.186c.042-.124.086-.245.13-.365l.143-.351.07-.172.078-.166c.197-.443.421-.842.635-1.203a11.3 11.3 0 01.643-.944c.206-.27.4-.492.564-.669.16-.18.303-.308.396-.397.095-.087.15-.129.15-.129zM40.77 2.894s.035.018.095.06c.059.043.148.105.25.195.21.177.485.458.76.844.135.194.275.411.4.656.067.12.119.25.181.381.056.134.112.27.16.415.023.071.05.143.072.217l.06.224c.045.15.072.307.103.464.053.315.091.64.093.967l.001.245-.013.243c-.004.163-.031.323-.05.482a5.918 5.918 0 01-.703 2.07c-.066.11-.121.22-.19.317-.134.195-.253.372-.38.515-.123.146-.229.27-.33.364-.097.095-.18.165-.232.214-.054.049-.085.073-.085.073s.007-.04.025-.112c.019-.07.042-.176.079-.304.039-.127.074-.287.122-.462.052-.174.093-.375.149-.585.028-.105.048-.218.074-.331.012-.057.027-.114.04-.172.013-.058.022-.118.033-.178.05-.24.09-.492.128-.75.011-.13.037-.26.047-.392a57.15 57.15 0 01.034-.401c.007-.135.016-.27.017-.407l.005-.204-.003-.205c-.001-.272-.022-.545-.043-.814-.032-.268-.06-.534-.107-.79-.017-.13-.05-.254-.07-.38-.027-.124-.051-.246-.08-.364-.053-.238-.116-.462-.173-.672-.12-.418-.237-.773-.325-1.024-.044-.125-.078-.227-.104-.294l-.04-.105zM44.308 1.86s.042.028.116.088c.073.061.183.15.31.276.257.248.598.634.939 1.153a8.04 8.04 0 01.609 1.124c.036.085.074.17.11.258.069.176.14.357.197.546.03.094.062.189.09.285l.076.294c.055.197.088.402.127.607.067.413.11.837.115 1.263.001.106.002.213 0 .319l-.014.318c-.004.212-.038.421-.062.629a8.255 8.255 0 01-.64 2.259c-.037.082-.07.163-.108.241l-.117.228-.116.218c-.038.071-.075.141-.118.206-.165.262-.312.502-.468.698-.152.198-.28.37-.405.5-.119.133-.219.232-.284.3-.066.069-.103.104-.103.104l.043-.142c.031-.09.072-.226.131-.391.062-.164.12-.37.197-.599.082-.226.15-.49.237-.767.044-.139.077-.288.118-.438.019-.076.041-.152.062-.23.02-.077.035-.157.054-.238.078-.319.14-.658.2-1.006.013-.088.024-.176.039-.265.014-.088.03-.177.036-.267l.028-.272.017-.136.009-.137c.011-.184.026-.368.029-.554l.008-.278-.005-.28c.002-.372-.033-.743-.065-1.11-.047-.364-.091-.725-.164-1.072-.027-.175-.076-.342-.107-.51-.042-.166-.08-.33-.124-.488-.082-.319-.18-.615-.268-.893a19.205 19.205 0 00-.505-1.333c-.068-.16-.122-.29-.163-.375l-.061-.133zM47.733.014s.055.041.15.13c.093.088.235.216.396.396.164.177.358.4.563.67.207.268.423.585.644.942.213.361.438.76.635 1.204l.077.166.07.172.143.35c.044.12.088.242.131.366l.064.186a196.817 196.817 0 01.174.577l.097.398c.071.266.112.542.165.819.084.556.142 1.128.148 1.701.001.144.003.287.001.43l-.02.429c-.005.286-.047.567-.077.847a11.806 11.806 0 01-.82 3.062c-.047.112-.09.223-.138.33l-.15.313-.149.299c-.048.098-.095.194-.15.284-.212.362-.398.695-.598.97-.194.276-.358.519-.517.702-.152.188-.278.33-.36.429l-.13.148.07-.187c.048-.12.115-.298.207-.519.097-.217.19-.494.309-.802.125-.304.233-.66.366-1.038.07-.188.12-.393.184-.598l.095-.313c.03-.107.055-.217.084-.327.12-.439.218-.907.31-1.39.019-.121.037-.244.059-.366.021-.123.045-.246.056-.372l.044-.378.025-.19.014-.19c.018-.257.042-.514.046-.773l.013-.39-.006-.389c.001-.52-.048-1.039-.098-1.549a17.46 17.46 0 00-.249-1.49c-.043-.242-.114-.473-.163-.706-.065-.228-.12-.455-.19-.671-.032-.11-.065-.217-.097-.322l-.104-.31c-.064-.206-.142-.398-.207-.588-.142-.374-.28-.716-.413-1.017-.133-.3-.25-.564-.358-.776-.107-.213-.19-.383-.252-.495l-.094-.174z" fill="#858788" fill-opacity=".5"/>
</svg>
